HIERARCHY
ROOT Hips
{
	OFFSET 64.9808 99.4403 336.71
	CHANNELS 6 Xposition Yposition Zposition Zrotation Xrotation Yrotation
	JOINT Spine
	{
		OFFSET 0 11.1289 0
		CHANNELS 3 Zrotation Xrotation Yrotation
		JOINT Spine1
		{
			OFFSET 0 11.1289 0
			CHANNELS 3 Zrotation Xrotation Yrotation
			JOINT Spine2
			{
				OFFSET 0 11.1289 0
				CHANNELS 3 Zrotation Xrotation Yrotation
				JOINT Spine3
				{
					OFFSET 0 11.1289 0
					CHANNELS 3 Zrotation Xrotation Yrotation
					JOINT LeftShoulder
					{
						OFFSET 1.5 7.35679 0
						CHANNELS 3 Zrotation Xrotation Yrotation
						JOINT LeftArm
						{
							OFFSET 14.3451 0 0
							CHANNELS 3 Zrotation Xrotation Yrotation
							JOINT LeftForeArm
							{
								OFFSET 31.2638 0 0
								CHANNELS 3 Zrotation Xrotation Yrotation
								JOINT LeftHand
								{
									OFFSET 23.949 0 0
									CHANNELS 3 Zrotation Xrotation Yrotation
									End Site
									{
										OFFSET 10 0 0
									}
								}
							}
						}
					}
					JOINT RightShoulder
					{
						OFFSET -1.49999 7.35679 0
						CHANNELS 3 Zrotation Xrotation Yrotation
						JOINT RightArm
						{
							OFFSET -14.3451 0 0
							CHANNELS 3 Zrotation Xrotation Yrotation
							JOINT RightForeArm
							{
								OFFSET -31.2638 0 0
								CHANNELS 3 Zrotation Xrotation Yrotation
								JOINT RightHand
								{
									OFFSET -23.949 0 0
									CHANNELS 3 Zrotation Xrotation Yrotation
									End Site
									{
										OFFSET -10 0 0
									}
								}
							}
						}
					}
					JOINT Neck
					{
						OFFSET 0 11.1289 0
						CHANNELS 3 Zrotation Xrotation Yrotation
						JOINT Head
						{
							OFFSET 0 9.03419 0
							CHANNELS 3 Zrotation Xrotation Yrotation
							End Site
							{
								OFFSET 0 15 0
							}
						}
					}
				}
			}
		}
	}
	JOINT LeftUpLeg
	{
		OFFSET 14.9264 0 0
		CHANNELS 3 Zrotation Xrotation Yrotation
		JOINT LeftLeg
		{
			OFFSET 0 -46.3156 0
			CHANNELS 3 Zrotation Xrotation Yrotation
			JOINT LeftFoot
			{
				OFFSET 0 -37.7849 0
				CHANNELS 3 Zrotation Xrotation Yrotation
				JOINT LeftToeBase
				{
					OFFSET 0 -7.83404 13.569
					CHANNELS 3 Zrotation Xrotation Yrotation
					End Site
					{
						OFFSET 0 0 5
					}
				}
			}
		}
	}
	JOINT RightUpLeg
	{
		OFFSET -14.9264 0 0
		CHANNELS 3 Zrotation Xrotation Yrotation
		JOINT RightLeg
		{
			OFFSET 0 -46.3156 0
			CHANNELS 3 Zrotation Xrotation Yrotation
			JOINT RightFoot
			{
				OFFSET 0 -37.7849 0
				CHANNELS 3 Zrotation Xrotation Yrotation
				JOINT RightToeBase
				{
					OFFSET 0 -7.83404 13.569
					CHANNELS 3 Zrotation Xrotation Yrotation
					End Site
					{
						OFFSET 0 0 5
					}
				}
			}
		}
	}
}
MOTION
Frames: 18
Frame Time: 0.005
64.9808 99.4403 336.71 176.622 -179.606 -86.0907 179.382 178.094 179.194 179.382 178.094 179.194 179.382 178.094 179.194 179.382 178.094 179.194 158.364 176.56 177.446 141.076 153.933 167.691 171.754 -177.896 160.651 173.378 -163.372 173.282 26.3679 5.56329 4.64791 26.3303 38.4848 21.0093 3.25028 -11.4669 12.3224 174.82 -163.284 176.444 179.71 -154.658 -165.315 179.578 176.615 178.763 0.720417 -15.0482 -1.41213 177.614 160.88 -177.542 178.162 -172.895 179.45 1.16556 -1.49536 1.15645 176.617 -163.27 174.713 0.965716 23.9964 1.05278 0.502119 -9.71444 -4.77409 1.15266 -0.488194 1.14892
64.9782 99.4427 336.706 176.611 -179.607 -86.0962 179.381 178.1 179.196 179.381 178.1 179.196 179.381 178.1 179.196 179.381 178.1 179.196 158.359 176.554 177.446 141.082 153.927 167.693 171.752 -177.9 160.654 173.378 -163.368 173.287 26.3706 5.57208 4.64798 26.3418 38.4857 20.995 3.25238 -11.4699 12.3221 174.821 -163.283 176.442 179.712 -154.657 -165.314 179.58 176.616 178.763 0.720675 -15.0529 -1.40041 177.614 160.867 -177.542 178.14 -172.829 179.436 1.16552 -1.49352 1.15645 176.619 -163.265 174.721 0.966158 23.9744 1.0526 0.464207 -9.70879 -4.76854 1.15267 -0.488387 1.14892
64.9746 99.4434 336.703 176.62 -179.606 -86.0838 179.382 178.097 179.196 179.382 178.097 179.196 179.382 178.097 179.196 179.382 178.097 179.196 158.356 176.554 177.446 141.077 153.922 167.683 171.749 -177.906 160.634 173.377 -163.374 173.284 26.3725 5.57508 4.64801 26.3484 38.4834 20.9866 3.25594 -11.4739 12.3191 174.825 -163.288 176.432 179.712 -154.654 -165.316 179.58 176.617 178.761 0.722993 -15.0525 -1.41186 177.614 160.865 -177.542 178.088 -172.847 179.412 1.16549 -1.49184 1.15645 176.615 -163.274 174.716 0.966047 23.98 1.05264 0.46516 -9.69559 -4.76555 1.15268 -0.489194 1.14892
64.9758 99.4426 336.7 176.617 -179.607 -86.1019 179.382 178.101 179.197 179.382 178.101 179.197 179.382 178.101 179.197 179.382 178.101 179.197 158.359 176.541 177.446 141.074 153.912 167.695 171.744 -177.91 160.638 173.376 -163.371 173.29 26.3806 5.57875 4.64804 26.3527 38.483 20.9816 3.25484 -11.4746 12.3207 174.829 -163.292 176.428 179.707 -154.655 -165.316 179.578 176.615 178.763 0.722681 -15.056 -1.39342 177.613 160.844 -177.542 178.102 -172.823 179.424 1.16544 -1.48947 1.15644 176.615 -163.269 174.719 0.966183 23.9732 1.05259 0.488989 -9.714 -4.77868 1.1527 -0.4902 1.14892
64.9736 99.4387 336.695 176.61 -179.585 -86.1207 179.392 178.113 179.21 179.392 178.113 179.21 179.392 178.113 179.21 179.392 178.113 179.21 158.315 176.427 177.446 141.155 153.868 167.619 171.787 -177.931 160.616 173.388 -163.34 173.342 26.3361 5.64037 4.64853 26.405 38.4652 20.9311 3.19529 -11.4526 12.3756 174.862 -163.43 176.302 179.666 -154.696 -165.333 179.587 176.602 178.757 0.745263 -15.0743 -1.27723 177.613 160.837 -177.541 178.289 -172.844 179.37 1.16494 -1.46465 1.15643 176.647 -163.256 174.766 0.966115 23.9766 1.05262 0.42894 -9.69431 -4.77417 1.15208 -0.459036 1.14891
64.968 99.4362 336.687 176.627 -179.587 -86.0903 179.402 178.09 179.184 179.402 178.09 179.184 179.402 178.09 179.184 179.402 178.09 179.184 158.309 176.503 177.446 141.088 153.854 167.724 171.861 -178.019 160.498 173.398 -163.216 173.466 26.3041 5.6134 4.64831 26.3578 38.4378 21.0463 3.21683 -11.4952 12.3679 174.81 -163.675 176.298 179.615 -154.573 -165.329 179.577 176.619 178.756 0.728824 -15.0756 -1.35023 177.611 160.811 -177.541 178.249 -172.843 179.417 1.16548 -1.49113 1.15645 176.628 -163.272 174.737 0.966219 23.9714 1.05257 0.46171 -9.68511 -4.7872 1.15346 -0.527781 1.14892
64.9708 99.4381 336.687 176.607 -179.613 -86.1174 179.379 178.113 179.202 179.379 178.113 179.202 179.379 178.113 179.202 179.379 178.113 179.202 158.351 176.503 177.446 141.05 153.963 167.745 171.785 -178.063 160.596 173.321 -163.319 173.324 26.3892 5.65594 4.64865 26.394 38.4147 20.9263 3.20208 -11.3308 12.4004 174.713 -163.517 176.299 179.685 -154.661 -165.303 179.585 176.606 178.756 0.712472 -15.0622 -1.33405 177.614 160.876 -177.542 178.172 -172.879 179.424 1.16602 -1.51811 1.15646 176.609 -163.269 174.77 0.966735 23.9458 1.05236 0.473947 -9.75398 -4.79031 1.15105 -0.407674 1.1489
64.9693 99.4346 336.683 176.603 -179.609 -86.1343 179.388 178.107 179.186 179.388 178.107 179.186 179.388 178.107 179.186 179.388 178.107 179.186 158.338 176.493 177.446 141.044 153.912 167.777 171.832 -178.056 160.541 173.349 -163.214 173.363 26.3398 5.6545 4.64864 26.37 38.4183 21.0295 3.20642 -11.3447 12.3775 174.738 -163.601 176.253 179.637 -154.577 -165.274 179.593 176.631 178.781 0.718724 -15.0835 -1.27139 177.612 160.825 -177.541 178.251 -172.834 179.363 1.16447 -1.44144 1.15642 176.62 -163.247 174.813 0.966525 23.9562 1.05245 0.466139 -9.66566 -4.84183 1.15336 -0.522954 1.14892
64.9603 99.4325 336.681 176.617 -179.599 -86.084 179.386 178.108 179.195 179.386 178.108 179.195 179.386 178.108 179.195 179.386 178.108 179.195 158.332 176.519 177.446 141.058 153.888 167.73 171.844 -178.061 160.545 173.235 -163.298 173.369 26.3763 5.68186 4.64886 26.3626 38.4004 20.968 3.22382 -11.4137 12.3901 174.732 -163.559 176.275 179.68 -154.618 -165.283 179.586 176.594 178.755 0.714465 -15.0979 -1.36836 177.612 160.815 -177.541 178.16 -172.881 179.41 1.1649 -1.46251 1.15643 176.618 -163.275 174.761 0.967028 23.9312 1.05225 0.439303 -9.68631 -4.82973 1.15323 -0.516376 1.14892
64.9596 99.4357 336.679 176.595 -179.602 -86.1125 179.385 178.12 179.203 179.385 178.12 179.203 179.385 178.12 179.203 179.385 178.12 179.203 158.324 176.501 177.446 141.056 153.885 167.757 171.829 -178.058 160.565 173.235 -163.296 173.364 26.3917 5.70533 4.64905 26.3676 38.4061 20.9423 3.21293 -11.4129 12.3926 174.731 -163.556 176.281 179.664 -154.631 -165.294 179.58 176.586 178.751 0.704932 -15.0873 -1.33882 177.613 160.857 -177.542 178.331 -172.87 179.438 1.16484 -1.45975 1.15643 176.623 -163.254 174.785 0.967275 23.9189 1.05215 0.396455 -9.65899 -4.84893 1.15333 -0.521236 1.14892
64.9582 99.4333 336.676 176.606 -179.6 -86.0998 179.386 178.118 179.196 179.386 178.118 179.196 179.386 178.118 179.196 179.386 178.118 179.196 158.316 176.498 177.446 141.056 153.88 167.756 171.827 -178.062 160.564 173.237 -163.292 173.367 26.3895 5.70163 4.64902 26.3688 38.4045 20.946 3.21413 -11.4134 12.3996 174.735 -163.556 176.286 179.664 -154.633 -165.288 179.58 176.586 178.754 0.708246 -15.0908 -1.34755 177.613 160.85 -177.542 178.266 -172.914 179.414 1.16486 -1.46082 1.15643 176.619 -163.268 174.789 0.967262 23.9195 1.05215 0.432598 -9.71138 -4.83422 1.15333 -0.521502 1.14892
64.9478 99.4257 336.676 176.586 -179.568 -86.0956 179.4 178.127 179.192 179.4 178.127 179.192 179.4 178.127 179.192 179.4 178.127 179.192 158.298 176.483 177.446 141.059 153.88 167.766 171.823 -178.115 160.561 173.219 -163.324 173.339 26.3258 5.74146 4.64935 26.4077 38.3683 20.9577 3.2072 -11.4363 12.3894 174.843 -163.599 176.368 179.633 -154.638 -165.275 179.589 176.609 178.764 0.748647 -15.1734 -1.33673 177.608 160.73 -177.54 178.108 -172.865 179.407 1.16751 -1.59189 1.1565 176.643 -163.237 174.832 0.967491 23.9081 1.05206 0.59302 -9.65023 -4.83215 1.15525 -0.61741 1.14894
64.9673 99.433 336.68 176.691 -179.568 -86.068 179.402 178.083 179.19 179.402 178.083 179.19 179.402 178.083 179.19 179.402 178.083 179.19 158.27 176.576 177.446 141.075 153.898 167.766 171.858 -178.232 160.563 172.98 -162.922 173.173 26.3779 5.66168 4.6487 26.3259 38.4571 21.0046 3.19644 -11.4906 12.3492 174.86 -163.606 176.376 179.609 -154.523 -165.302 179.586 176.571 178.748 0.742821 -15.033 -1.3958 177.61 160.789 -177.541 178.183 -172.848 179.418 1.16527 -1.48087 1.15644 176.658 -163.408 174.804 0.969531 23.8065 1.05123 0.487653 -9.61202 -4.85669 1.15735 -0.722131 1.14897
64.9322 99.4244 336.663 176.599 -179.578 -86.0461 179.404 178.117 179.184 179.404 178.117 179.184 179.404 178.117 179.184 179.404 178.117 179.184 158.286 176.531 177.446 141.028 153.894 167.773 171.812 -178.148 160.559 173.308 -163.322 173.537 26.3206 5.67713 4.64883 26.3906 38.4891 20.975 3.15342 -11.3904 12.3633 174.851 -163.413 176.309 179.576 -154.593 -165.289 179.576 176.591 178.746 0.700206 -15.1694 -1.38673 177.608 160.744 -177.54 178.336 -172.833 179.422 1.16404 -1.42015 1.15641 176.614 -163.281 174.808 0.968575 23.8541 1.05162 0.667821 -9.62563 -4.87303 1.15786 -0.747464 1.14897
64.9339 99.4259 336.661 176.601 -179.602 -86.0724 179.397 178.109 179.165 179.397 178.109 179.165 179.397 178.109 179.165 179.397 178.109 179.165 158.329 176.546 177.446 140.982 153.755 167.853 171.847 -177.972 160.497 173.234 -163.088 173.401 26.3394 5.69403 4.64896 26.3309 38.4385 21.0639 3.20845 -11.4246 12.3704 174.858 -163.546 176.351 179.569 -154.494 -165.216 179.605 176.588 178.765 0.681708 -15.1199 -1.36531 177.612 160.828 -177.541 178.349 -172.887 179.402 1.16416 -1.42592 1.15641 176.598 -163.241 174.776 0.966821 23.9415 1.05233 0.478676 -9.67031 -4.8623 1.15611 -0.660057 1.14895
64.952 99.4239 336.674 176.657 -179.55 -86.0745 179.417 178.091 179.171 179.417 178.091 179.171 179.417 178.091 179.171 179.417 178.091 179.171 158.292 176.552 177.446 140.992 153.763 167.83 171.861 -177.949 160.505 173.115 -163.181 173.335 26.3374 5.70388 4.64904 26.2789 38.4827 21.1027 3.17217 -11.2839 12.3605 174.699 -163.383 176.335 179.526 -154.429 -165.251 179.598 176.571 178.758 0.774398 -15.1056 -1.31034 177.607 160.725 -177.54 178.116 -172.841 179.35 1.16595 -1.51453 1.15646 176.671 -163.349 174.845 0.968928 23.8365 1.05148 0.555538 -9.64201 -4.87668 1.15461 -0.585237 1.14893
64.946 99.4251 336.671 176.671 -179.548 -86.0526 179.418 178.085 179.163 179.418 178.085 179.163 179.418 178.085 179.163 179.418 178.085 179.163 158.284 176.556 177.446 141.002 153.761 167.825 171.862 -177.959 160.49 173.107 -163.2 173.321 26.3423 5.69767 4.64899 26.2609 38.4831 21.1236 3.17895 -11.2829 12.3553 174.692 -163.377 176.333 179.539 -154.421 -165.24 179.6 176.577 178.762 0.754692 -15.0964 -1.32518 177.607 160.713 -177.54 178.305 -172.762 179.361 1.16563 -1.49853 1.15645 176.681 -163.365 174.82 0.96868 23.8489 1.05158 0.433481 -9.66823 -4.90616 1.15454 -0.582018 1.14893
64.919 99.4181 336.656 176.608 -179.599 -86.0775 179.396 178.115 179.185 179.396 178.115 179.185 179.396 178.115 179.185 179.396 178.115 179.185 158.328 176.536 177.446 140.991 153.787 167.799 171.805 -178.031 160.546 173.114 -163.103 173.249 26.431 5.72338 4.6492 26.2442 38.4589 21.0377 3.02481 -11.5746 12.413 175.491 -163.631 176.072 179.566 -154.54 -165.247 179.588 176.601 178.758 0.685322 -15.1347 -1.37476 177.611 160.794 -177.541 178.244 -172.857 179.435 1.16462 -1.44863 1.15642 176.593 -163.214 174.789 0.965887 23.9879 1.05271 0.618641 -9.67287 -4.79951 1.15831 -0.769812 1.14898
